<svg xmlns="http://www.w3.org/2000/svg" width="1024" height="1024" viewBox="0 0 1024 1024"><path fill="#009066" d="M0 0h1024v1024H0Zm815.8 875.07c10.2 3.26 24.94 2.17 34.2-2.54 11.16-5.67 21.43-17.7 25.01-29.31 3.85-12.44 2.08-28.45-4.29-39.01-2.16-3.59-32.72-34.59-94.96-96.35-50.47-50.08-91.76-91.53-91.76-92.11 0-.59 2.8-5.38 6.22-10.66 14.99-23.1 29.63-55.5 36.41-80.59 8.04-29.68 10.8-49.68 10.83-78.5.03-24.84-.94-35.82-5.08-57.5-7.06-37.03-17.98-65.87-36.85-97.34-20.06-33.43-41.63-57.53-73.43-81.98-27.4-21.08-59.14-37.2-95.6-48.54-38-11.81-90.64-15.02-132.5-8.07-66.15 10.99-127.75 45.42-172.42 96.37-35.57 40.57-58.37 87.07-68.62 139.94-6.63 34.24-6.61 77.41.06 110.62 11.55 57.54 37.76 107.62 77.89 148.86C287.43 706.45 363.79 739 443.5 739a288 288 0 0 0 116.33-24.65c17.51-7.76 25.64-12.14 41.86-22.54 6.71-4.29 12.78-7.81 13.49-7.81s42.7 41.35 93.31 91.88c60.29 60.2 93.66 92.82 96.81 94.62a66 66 0 0 0 10.5 4.57M476 682.48c-15.2 2.24-42.94 2.75-57.5 1.04-46.97-5.49-91.07-23.75-127-52.58-12.8-10.28-31.22-29.42-41.62-43.27-53.96-71.82-63.08-168.67-23.53-249.78 19.02-39.02 46.36-70.39 81.88-93.94 33.03-21.91 63.98-33.45 104.77-39.07 12.31-1.69 46.57-1.73 60-.06 37.77 4.69 72.8 17.58 103.71 38.16 16.8 11.19 26.12 19 40.87 34.27 35.6 36.87 56.77 81.85 64.59 137.25 1.98 14 1.67 48.56-.56 63-4.32 28-12.37 53.07-24.81 77.24-11.76 22.86-23.58 38.99-42.8 58.37-37.38 37.72-84.68 61.49-138 69.37m22-81.18c1.38.24 7.04.49 12.59.56 27.23.37 53.98-15.16 65.19-37.86 2.42-4.89 2.72-6.62 2.72-15.65v-1.4c.01-4.42.02-7.44-1.1-9.96-2.54-5.7-10.86-8.82-37.98-19.72-33.89-13.62-38.23-14.81-44.76-12.33-1.36.52-8.25 6.82-15.32 14-11.98 12.2-13.09 13.07-16.62 13.06-6.23 0-25.23-10.82-42.22-24.04-11.9-9.25-33.75-31.25-42.22-42.5-13.11-17.42-22.25-33.21-22.27-38.47-.02-4.19 3.82-10.03 12.75-19.43 4.68-4.91 9.79-10.72 11.37-12.9 4.99-6.88 4.44-9.5-8.7-41.76-16.6-40.78-16.05-39.67-20.81-42.09-3.39-1.73-5.72-2.04-14.51-1.92-14.56.19-19.8 2.69-30.88 14.73-13.7 14.88-19.23 29.24-19.23 49.95 0 12.15 1.42 21.13 5.43 34.34 8.32 27.36 26.69 61.43 47.76 88.57 36.67 47.22 94.36 87.44 145.5 101.44A264 264 0 0 0 498 601.3m38.92-141.28a7.9 7.9 0 0 0 9.44-1.47c1.25-1.34 3.76-5.5 5.58-9.25s5.13-10.51 7.37-15.05l4.06-8.25h15.7c17.72 0 19.53-.62 20.55-7 .43-2.66.04-4.16-1.6-6.25l-2.17-2.75h-40.67l-2.41 2.87c-1.33 1.57-3 4.27-3.71 6-.72 1.72-1.59 3.16-1.93 3.21-.35.04-1.42.22-2.38.41s-1.99-.07-2.3-.57-2.98-11.82-5.95-25.16c-9.13-41-15.4-68.66-16.5-72.76-1.83-6.81-8.52-9.19-13.32-4.75-2.09 1.92-4.06 8.82-13.63 47.71-6.15 25-11.44 45.87-11.76 46.38-.62 1.01-2.73-3.88-10.47-24.34-2.8-7.42-6.02-14.51-7.14-15.75-2.61-2.89-8.62-3.08-11.09-.35-1.38 1.53-13.38 28.19-15.91 35.35-.55 1.56-2.21 1.75-15.08 1.75-14.43 0-14.46.01-16.53 2.63-2.34 2.98-2.6 5.5-.91 8.69 2.33 4.36 3.54 4.61 22 4.65l17.66.03 2.38-2.83c1.31-1.55 3.84-6.18 5.63-10.28 2.62-6.01 3.71-7.5 5.57-7.65 2.13-.18 2.86 1.24 8.63 16.53 7.63 20.28 10.25 25.71 13.37 27.76 2.8 1.83 6.65 1.17 9.12-1.55 1.47-1.63 10.57-36.08 16.45-62.32 3.6-16.05 6.28-24.97 7.07-23.53.41.75 5.09 21.17 10.4 45.37 9.66 44 11.53 50.79 14.48 52.52"/><path fill="#009066" d="m547.74 421.44-.17.37c-1.62 3.4-3.22 6.19-3.56 6.19-.35 0-3.18-11.59-6.31-25.75l-2.57-11.62 1.37 6.13c2.97 13.34 5.64 24.67 5.95 25.16.31.5 1.34.75 2.3.57s2.03-.37 2.38-.41c.14-.02.35-.26.61-.64m-101.08 1.13c2.68-4.01 7.69-14.69 8.72-18.89.38-1.55 1.2-2.65 1.83-2.44.34.11 1.69 2.92 3.53 7.25-1.41-2.96-2.16-3.35-3.34-3.25-1.86.15-2.95 1.64-5.57 7.65a65 65 0 0 1-5.17 9.68m-2.84 3.43-16.55-.03c14.77.02 16.35-.08 18.12-1.83Zm22.21-4.23-1.91-5.03q.92 2.33 1.87 4.82a869 869 0 0 0 7.6 19.17c-1.88-4.14-4.25-10.15-7.56-18.96m86.74-8.9 2.41-2.87-2.34 2.81a44 44 0 0 0-3.79 6.07l.01-.01a27 27 0 0 1 3.71-6m-74.8 35.42a7.8 7.8 0 0 0 4.72 2.27 6.4 6.4 0 0 1-4.72-2.27m48.15-97.87a1417 1417 0 0 0-6.16-26.56l.04.14c.61 2.25 2.77 11.62 6.12 26.42m-11.09-32.78c-2.64-1.17-5.79-.76-8.35 1.61 2.59-2.39 5.72-2.81 8.35-1.61"/><path fill="#fcfdfb" d="M815.8 875.07c-3.14-1-7.86-3.06-10.5-4.57-3.15-1.8-36.52-34.42-96.81-94.62-50.61-50.53-92.6-91.88-93.31-91.88s-6.78 3.52-13.49 7.81c-16.22 10.4-24.35 14.78-41.86 22.54A288 288 0 0 1 443.5 739c-79.71 0-156.07-32.55-212.59-90.64-40.13-41.24-66.34-91.32-77.89-148.86-6.67-33.21-6.69-76.38-.06-110.62 10.25-52.87 33.05-99.37 68.62-139.94 44.67-50.95 106.27-85.38 172.42-96.37 41.86-6.95 94.5-3.74 132.5 8.07 36.46 11.34 68.2 27.46 95.6 48.54 31.8 24.45 53.37 48.55 73.43 81.98 18.87 31.47 29.79 60.31 36.85 97.34 4.14 21.68 5.11 32.66 5.08 57.5-.03 28.82-2.79 48.82-10.83 78.5-6.78 25.09-21.42 57.49-36.41 80.59-3.42 5.28-6.22 10.07-6.22 10.66s41.29 42.03 91.76 92.11c62.24 61.76 92.8 92.76 94.96 96.35 6.37 10.56 8.14 26.57 4.29 39.01-3.58 11.61-13.85 23.64-25.01 29.31-9.26 4.71-24 5.8-34.2 2.54M476 682.48c53.32-7.88 100.62-31.65 138-69.37 19.22-19.38 31.04-35.51 42.8-58.37 12.44-24.17 20.49-49.24 24.81-77.24 2.23-14.44 2.54-49 .56-63-7.82-55.4-28.99-100.38-64.59-137.25-14.75-15.27-24.07-23.08-40.87-34.27-30.91-20.58-65.94-33.47-103.71-38.16-13.43-1.67-47.69-1.63-60 .06-40.79 5.62-71.74 17.16-104.77 39.07-35.52 23.55-62.86 54.92-81.88 93.94-39.55 81.11-30.43 177.96 23.53 249.78 10.4 13.85 28.82 32.99 41.62 43.27 35.93 28.83 80.03 47.09 127 52.58 14.56 1.71 42.3 1.2 57.5-1.04m22-81.18c-1.38-.23-7.36-1.76-13.31-3.38-51.14-14-108.83-54.22-145.5-101.44-21.07-27.14-39.44-61.21-47.76-88.57-4.01-13.21-5.43-22.19-5.43-34.34 0-20.71 5.53-35.07 19.23-49.95 11.08-12.04 16.32-14.54 30.88-14.73 8.79-.12 11.12.19 14.51 1.92 4.76 2.42 4.21 1.31 20.81 42.09 13.14 32.26 13.69 34.88 8.7 41.76-1.58 2.18-6.69 7.99-11.37 12.9-8.93 9.4-12.77 15.24-12.75 19.43.02 5.26 9.16 21.05 22.27 38.47 8.47 11.25 30.32 33.25 42.22 42.5 16.99 13.22 35.99 24.04 42.22 24.04 3.53.01 4.64-.86 16.62-13.06 7.07-7.18 13.96-13.48 15.32-14 6.53-2.48 10.87-1.29 44.76 12.33 40.34 16.21 39.08 15.21 39.08 31.08 0 9.03-.3 10.76-2.72 15.65-11.21 22.7-37.96 38.23-65.19 37.86-5.55-.07-11.21-.32-12.59-.56m38.92-141.28c-2.95-1.73-4.82-8.52-14.48-52.52-5.31-24.2-9.99-44.62-10.4-45.37-.79-1.44-3.47 7.48-7.07 23.53-5.88 26.24-14.98 60.69-16.45 62.32-4.05 4.47-9.89 3.03-13.17-3.24-.94-1.78-5.15-12.21-9.36-23.18s-8.16-20.12-8.78-20.32c-.63-.21-1.45.89-1.83 2.44-1.16 4.73-7.36 17.67-9.61 20.06-2.05 2.18-2.72 2.26-19.69 2.23-18.37-.04-19.59-.3-21.92-4.65-1.69-3.19-1.43-5.71.91-8.69 2.07-2.62 2.1-2.63 16.53-2.63 12.87 0 14.53-.19 15.08-1.75 2.53-7.16 14.53-33.82 15.91-35.35 2.47-2.73 8.48-2.54 11.09.35 1.12 1.24 4.34 8.33 7.14 15.75 7.74 20.46 9.85 25.35 10.47 24.34.32-.51 5.61-21.38 11.76-46.38 9.57-38.89 11.54-45.79 13.63-47.71 4.74-4.38 11.48-2.07 13.26 4.54 1.26 4.66 10.3 44.63 17.76 78.46 3.13 14.16 5.96 25.75 6.31 25.75s1.94-2.79 3.56-6.19c1.61-3.41 3.98-7.46 5.27-9l2.34-2.81h40.67l2.17 2.75c1.64 2.09 2.03 3.59 1.6 6.25-1.02 6.38-2.83 7-20.55 7h-15.7l-4.06 8.25c-2.24 4.54-5.55 11.31-7.37 15.05s-4.33 7.91-5.58 9.25a7.9 7.9 0 0 1-9.44 1.47"/></svg>